# xmcd
#
# Track frame offsets: 
#        150
#        15610
#        29491
#        42000
#        60754
#        78490
#        95173
#        112860
#        128005
#        147038
#        153871
#        169358
#        184794
#        201644
#
# Disc length: 2922 seconds
#
# Revision: 0
# Processed by: cddbd v1.4PL0 Copyright (c) Steve Scherf et al.
# Submitted via: ExactAudioCopy v0.90b3
#
DISCID=b30b680e
DTITLE=Tumbleweed - Weedgarden
DYEAR=1997
DGENRE=Country
TTITLE0=Let Your Child Be Free
TTITLE1=No Big Deal
TTITLE2=All My Loving
TTITLE3=Nobody's Fault But Mine
TTITLE4=The Woman She Used To Be
TTITLE5=You'll Be Mine
TTITLE6=Lonesome Hearted Woman
TTITLE7=I Know You Love Me
TTITLE8=Chain Of Pain
TTITLE9=Mozart Banjart
TTITLE10=Wake Up
TTITLE11=Tumbling Tumbleweeds
TTITLE12=Coyote Choir
TTITLE13=Marry Me
EXTD=
EXTT0=
EXTT1=
EXTT2=
EXTT3=
EXTT4=
EXTT5=
EXTT6=
EXTT7=
EXTT8=
EXTT9=
EXTT10=
EXTT11=
EXTT12=
EXTT13=
PLAYORDER=
